# Blender 4.1.0
# www.blender.org
o VPropelCone
v 0.000000 -2.610446 -0.551295
v 0.000000 -0.654974 -0.442238
v 0.438066 -2.605033 -0.434041
v 0.338504 -0.650791 -0.351633
v 0.758753 -2.590243 -0.113695
v 0.586306 -0.639363 -0.104095
v 0.876133 -2.570040 0.323905
v 0.677008 -0.623752 0.234049
v 0.758753 -2.549837 0.761505
v 0.586306 -0.608140 0.572192
v 0.438066 -2.535047 1.081851
v 0.338504 -0.596712 0.819731
v 0.000000 -2.529634 1.199105
v 0.000000 -0.592529 0.910336
v -0.438066 -2.535047 1.081851
v -0.338504 -0.596712 0.819731
v -0.758753 -2.549837 0.761505
v -0.586306 -0.608140 0.572192
v -0.876133 -2.570040 0.323905
v -0.677008 -0.623752 0.234049
v -0.758753 -2.590243 -0.113695
v -0.586306 -0.639363 -0.104095
v -0.438066 -2.605033 -0.434041
v -0.338504 -0.650791 -0.351633
vn -0.0000 0.0557 -0.9984
vn 0.4974 0.0618 -0.8653
vn 0.8615 0.0786 -0.5016
vn 0.9948 0.1016 -0.0047
vn 0.8615 0.1245 0.4922
vn 0.4974 0.1413 0.8559
vn -0.0000 0.1474 0.9891
vn -0.4974 0.1413 0.8559
vn -0.8615 0.1245 0.4922
vn -0.9948 0.1016 -0.0047
vn -0.8615 0.0786 -0.5016
vn -0.4974 0.0618 -0.8653
vt 0.500000 0.999999
vt 0.750000 0.000000
vt 0.500000 0.000000
vt 0.834599 0.999999
vt 0.933013 0.000000
vt 0.886361 0.999999
vt 1.000000 0.000000
vt 0.693180 1.000000
vt 0.306819 1.000000
vt 0.250000 0.000000
vt 0.066987 0.000000
vt 0.113639 0.999999
vt 0.000000 0.000000
vt 0.306819 0.999999
vt 0.693180 0.999999
vt 0.834599 1.000000
vt 0.500000 1.000000
vt 0.165401 1.000000
vt 0.165401 0.999999
s 1
f 2/1/1 3/2/2 1/3/1
f 3/2/2 6/4/3 5/5/3
f 5/5/3 8/6/4 7/7/4
f 8/6/4 9/5/5 7/7/4
f 9/5/5 12/8/6 11/2/6
f 12/8/6 13/3/7 11/2/6
f 13/3/7 16/9/8 15/10/8
f 16/9/8 17/11/9 15/10/8
f 17/11/9 20/12/10 19/13/10
f 20/12/10 21/11/11 19/13/10
f 21/11/11 24/14/12 23/10/12
f 24/14/12 1/3/1 23/10/12
f 2/1/1 4/15/2 3/2/2
f 3/2/2 4/15/2 6/4/3
f 5/5/3 6/4/3 8/6/4
f 8/6/4 10/16/5 9/5/5
f 9/5/5 10/16/5 12/8/6
f 12/8/6 14/17/7 13/3/7
f 13/3/7 14/17/7 16/9/8
f 16/9/8 18/18/9 17/11/9
f 17/11/9 18/18/9 20/12/10
f 20/12/10 22/19/11 21/11/11
f 21/11/11 22/19/11 24/14/12
f 24/14/12 2/1/1 1/3/1
