<?xml version="1.0" encoding="utf-8"?>
<!-- Generator: Adobe Illustrator 27.9.0, SVG Export Plug-In . SVG Version: 6.00 Build 0)  -->
<svg version="1.1" id="Layer_1" xmlns="http://www.w3.org/2000/svg" xmlns:xlink="http://www.w3.org/1999/xlink" x="0px" y="0px"
	 viewBox="0 0 43 43" style="enable-background:new 0 0 43 43;" xml:space="preserve">
<style type="text/css">
	.st0{fill:url(#SVGID_1_);}
	.st1{fill:#EDF4F5;}
	.st2{fill:#FFFFFF;}
</style>
<g>
	
		<linearGradient id="SVGID_1_" gradientUnits="userSpaceOnUse" x1="21.5" y1="6.9822" x2="21.5" y2="38.0213" gradientTransform="matrix(1 0 0 -1 0 44)">
		<stop  offset="0" style="stop-color:#200E4F"/>
		<stop  offset="0.6163" style="stop-color:#0D0620"/>
		<stop  offset="1" style="stop-color:#000000"/>
	</linearGradient>
	<path class="st0" d="M37.2,38.8H5.8c-0.9,0-1.6-0.7-1.6-1.6V5.8c0-0.9,0.7-1.6,1.6-1.6h31.4c0.9,0,1.6,0.7,1.6,1.6v31.4
		C38.8,38.1,38.1,38.8,37.2,38.8z"/>
</g>
<g>
	<path class="st1" d="M29.6,15.9L29.6,15.9c-0.4-1.3-1-2.4-1.8-3.2c-0.7-0.8-1.6-1.4-2.4-1.8c-0.9-0.4-1.8-0.5-2.7-0.5h-1.6L21,10.6
		c-0.2,0.6-0.4,1.2-0.7,1.8c-0.2,0.6-0.3,1-0.3,1.3v16l-1.5-0.2V11.8c0-0.1-0.1-0.3-0.3-0.5c-0.2-0.2-0.4-0.4-0.5-0.5
		c-0.2-0.2-0.4-0.3-0.5-0.3c-0.1,0-0.3,0-0.7,0.1c-0.4,0.1-0.7,0.1-1.2,0.1c-0.4,0.1-0.8,0.2-1.3,0.2c-0.4,0.1-0.8,0.1-1,0.2
		L12.8,11v1.8l2.2,0.5v6.9c0.5,0.1,0.9,0.2,1.4,0.4c0.2,0.1,0.2,0.4,0,0.5c-0.5,0.2-0.9,0.4-1.4,0.4v9.2c0,0.1,0.1,0.3,0.3,0.5
		c0.2,0.2,0.4,0.4,0.5,0.5c0.3,0.2,0.4,0.3,0.5,0.3c0.7,0.1,1.5,0.2,2.4,0.2c0.9,0.1,1.8,0.1,2.8,0.2c1,0.1,1.8,0.1,2.4,0.1
		c0.4,0,0.8-0.1,1.3-0.4c0.4-0.2,0.9-0.6,1.4-1c0.5-0.4,0.9-0.8,1.3-1.2c0.4-0.4,0.7-0.8,1-1.2c0.3-0.4,0.4-0.7,0.5-0.8
		c0.2-0.9,0.4-1.9,0.5-3.1s0.2-2.5,0.2-3.8C30.3,18.9,30,17.2,29.6,15.9z M26.2,25.3c-0.1,1.2-0.2,2.2-0.4,3
		c-0.1,0.4-0.2,0.8-0.4,1.1c-0.1,0.3-0.3,0.5-0.5,0.6c-0.2,0.1-0.4,0.2-0.5,0.1L22,29.9c0.1-0.2,0.2-0.4,0.2-0.6
		c0.1-0.4,0.2-0.7,0.2-0.8V12.8l1-0.1c0.4-0.1,0.8,0.1,1.2,0.5c0.4,0.4,0.7,1,1,1.8c0.2,0.8,0.5,1.7,0.6,2.7c0.1,1,0.2,2.2,0.2,3.4
		C26.3,22.7,26.3,24.1,26.2,25.3z"/>
</g>
<path class="st2" d="M36.1,30.2c-0.6-0.3-1.1-0.7-1.5-1.2c-0.7-0.8-1-1.7-1.1-2.3c0-0.1-0.1-0.1-0.1-0.1s-0.1,0-0.1,0.1
	c-0.1,0.6-0.4,1.5-1.1,2.3c-0.4,0.5-0.9,0.9-1.5,1.2c0,0-0.1,0.1-0.1,0.1c0,0,0,0.1,0,0.1c0.6,0.5,1.1,1.1,1.5,1.8
	c0.8,1.3,1,2.6,1,3.5c0,0.1,0.1,0.1,0.1,0.1c0.1,0,0.1-0.1,0.1-0.1c0-0.9,0.2-2.2,1-3.5c0.4-0.7,0.9-1.3,1.5-1.8
	C36.1,30.3,36.1,30.3,36.1,30.2C36.1,30.2,36.1,30.2,36.1,30.2z"/>
<path class="st2" d="M11.8,9c-0.5-0.2-0.8-0.5-1.2-0.9c-0.5-0.7-0.7-1.3-0.8-1.8c0,0,0-0.1-0.1-0.1c0,0-0.1,0-0.1,0.1
	C9.5,6.7,9.3,7.4,8.8,8.1C8.4,8.5,8,8.8,7.6,9c0,0,0,0-0.1,0.1c0,0,0,0.1,0,0.1c0.5,0.4,0.9,0.9,1.2,1.4c0.6,1,0.8,2.1,0.8,2.8
	c0,0.1,0,0.1,0.1,0.1c0.1,0,0.1,0,0.1-0.1c0-0.7,0.2-1.7,0.8-2.8c0.3-0.5,0.7-1,1.2-1.4C11.8,9.1,11.8,9.1,11.8,9
	C11.8,9,11.8,9,11.8,9z"/>
</svg>
