<?xml version="1.0" encoding="utf-8"?>
<!-- Generator: Adobe Illustrator 28.3.0, SVG Export Plug-In . SVG Version: 6.00 Build 0)  -->
<svg version="1.1" id="Layer_1" xmlns="http://www.w3.org/2000/svg" xmlns:xlink="http://www.w3.org/1999/xlink" x="0px" y="0px"
	 viewBox="0 0 56 56" style="enable-background:new 0 0 56 56;" xml:space="preserve">
<style type="text/css">
	.st0{fill:url(#SVGID_1_);stroke:#000000;stroke-width:0.4;stroke-miterlimit:10;}
	.st1{fill:#FFFFFF;}
</style>
<g>
	
		<linearGradient id="SVGID_1_" gradientUnits="userSpaceOnUse" x1="28" y1="603.4941" x2="28" y2="555.0516" gradientTransform="matrix(1 0 0 1 0 -551.2756)">
		<stop  offset="0" style="stop-color:#200E4F"/>
		<stop  offset="0.6163" style="stop-color:#0D0620"/>
		<stop  offset="1" style="stop-color:#000000"/>
	</linearGradient>
	<path class="st0" d="M52.5,55h-49C2.1,55,1,53.9,1,52.5v-49C1,2.1,2.1,1,3.5,1h49C53.9,1,55,2.1,55,3.5v49C55,53.9,53.9,55,52.5,55
		z"/>
</g>
<path class="st1" d="M28.5,44.2c0.1,0,0.3-0.1,0.5-0.2c0.2-0.2,0.3-0.5,0.3-0.6c0.1-2.4,0.1-4.7,0.2-7.1c1.4,0,2.7-0.1,4.1-0.1
	c0.2,0,0.4-0.2,0.4-0.4c0-0.2-0.2-0.4-0.4-0.4c-0.8-0.1-1.6-0.1-2.5-0.2c0.8-0.4,2.1-1.1,3.2-2.5c0.4-0.6,0.7-1.1,1-1.6
	c0.1,0.2,0.5,0.8,1.2,1c0.2,0.1,0.5,0.1,0.6,0.1c0.7,0,1.4,0,2.1,0c0,0,0.3,0,0.5-0.3c0.1-0.2,0.1-0.3,0.1-0.4c0-0.4,0-0.9,0-1.3
	c1.3-0.6,2.5-1.2,3.8-1.8c0.1,0,0.3,0.1,0.4,0.1c0.1,0.1,0.3,0.1,0.6,0.1c0.3,0,0.5-0.1,0.7-0.1c1.7-0.8,3.4-1.5,5-2.3
	c0.1-0.1,0.2-0.3,0.1-0.4c-0.1-0.1-0.2-0.1-0.3-0.1c-2.3,0.4-4.6,0.8-6.9,1.1c-0.1,0-0.2,0.1-0.3,0.2c-0.1,0.1-0.2,0.3-0.2,0.4
	c0,0.2-0.1,0.3-0.1,0.5c-0.2-0.2-0.3-0.5-0.5-0.7c-0.8-0.1-1.6-0.1-2.4-0.2c0-0.2,0-0.5,0-0.7c0,0,0-0.1,0-0.2
	c-0.1-0.1-0.2-0.2-0.2-0.2c-0.2,0-0.4-0.1-0.5-0.1c0.3-1.2,0.6-2.4,0.9-3.7c0-0.2-0.1-0.4-0.2-0.5c-0.2-0.1-0.4,0-0.5,0.2
	c-0.6,1.1-1.3,2.2-1.9,3.3c-0.5,0.3-1.1,0.5-1.6,0.8c-0.2,0-0.4,0-0.6,0c-0.3-0.7-0.9-1.9-2.3-3c-0.9-0.7-1.7-1-2.3-1.2
	c0.2-0.1,0.7-0.6,0.9-1.3c0.1-0.3,0.2-1.1-0.3-1.9c-0.6-0.8-1.5-0.9-1.6-0.9c0-1.8,0-3.6,0-5.4c0,0,0-0.4-0.3-0.6
	c-0.2-0.1-0.4-0.1-0.5-0.1c-0.1,0-0.3,0-0.5,0.1c-0.3,0.2-0.3,0.6-0.3,0.6c0,1.8,0,3.6,0,5.4c-0.1,0-1.1,0.1-1.6,0.9
	c-0.5,0.8-0.4,1.6-0.3,1.9c0.2,0.8,0.7,1.2,0.9,1.3c-0.6,0.2-1.5,0.5-2.3,1.2c-1.4,1.1-2,2.4-2.3,3c-0.2,0-0.4,0-0.6,0
	c-0.5-0.3-1.1-0.5-1.6-0.8c-0.6-1.1-1.3-2.2-1.9-3.3c-0.1-0.2-0.3-0.3-0.5-0.2c-0.2,0.1-0.3,0.3-0.2,0.5c0.3,1.2,0.6,2.4,0.9,3.7
	c-0.2,0-0.4,0.1-0.5,0.1c0,0-0.2,0-0.2,0.2c0,0.1,0,0.2,0,0.2c0,0.2,0,0.5,0,0.7c-0.8,0.1-1.6,0.1-2.4,0.2c-0.2,0.2-0.3,0.5-0.5,0.7
	c0-0.2-0.1-0.3-0.1-0.5c0-0.1,0-0.2-0.2-0.4c-0.1-0.1-0.3-0.2-0.3-0.2c-2.3-0.4-4.6-0.8-6.9-1.1c-0.1,0-0.2,0-0.3,0.1
	c-0.1,0.1-0.1,0.3,0.1,0.4c1.7,0.8,3.4,1.5,5,2.3c0.1,0.1,0.4,0.1,0.7,0.1c0.3,0,0.5-0.1,0.6-0.1c0.1,0,0.3-0.1,0.4-0.1
	c1.3,0.6,2.5,1.2,3.8,1.8c0,0.4,0,0.9,0,1.3c0,0.1,0,0.2,0.1,0.4c0.2,0.2,0.4,0.3,0.5,0.3c0.7,0,1.4,0,2.1,0c0.2,0,0.4,0,0.6-0.1
	c0.7-0.2,1.1-0.8,1.2-1c0.2,0.5,0.5,1,1,1.6c1.1,1.4,2.4,2.1,3.2,2.5c-0.8,0.1-1.6,0.1-2.5,0.2c-0.2,0-0.4,0.2-0.4,0.4
	c0,0.2,0.2,0.4,0.4,0.4c1.4,0,2.7,0.1,4.1,0.1c0.1,2.4,0.1,4.7,0.2,7.1c0,0.1,0.1,0.4,0.3,0.6C28.2,44.1,28.4,44.1,28.5,44.2z"/>
<path class="st1" d="M13.1,41.7c2.9-1.9,5.7-3.9,8.6-5.8c0,0,0.2-0.1,0.2-0.3c0-0.1,0-0.3,0-0.3c-0.2-0.3-0.4-0.6-0.6-0.8
	c0-0.1-0.1-0.1-0.2-0.1c-0.3-0.1-0.7,0.2-0.7,0.2c-2.7,2.3-5.4,4.6-8.1,6.9c0,0,0,0.1,0,0.2c0.1,0.2,0.3,0.2,0.4,0.2
	C12.9,41.8,13,41.8,13.1,41.7z"/>
<path class="st1" d="M43.9,41.7c-2.9-1.9-5.7-3.9-8.6-5.8c0,0-0.2-0.1-0.2-0.3c0-0.1,0-0.3,0-0.3c0.2-0.3,0.4-0.6,0.6-0.8
	c0-0.1,0.1-0.1,0.2-0.1c0.3-0.1,0.7,0.2,0.7,0.2c2.7,2.3,5.4,4.6,8.1,6.9c0,0,0,0.1,0,0.2c-0.1,0.2-0.3,0.2-0.4,0.2
	C44.1,41.8,44,41.8,43.9,41.7z"/>
</svg>
