# Blender 4.1.0
# www.blender.org
o Grass.002
v -0.557971 -0.095056 -0.552122
v -0.511732 -0.095056 0.627317
v -0.557971 1.732547 -0.552122
v -0.511732 1.732547 0.627317
v -1.124571 -0.095056 0.060717
v 0.054868 -0.095056 0.014478
v -1.124571 1.732547 0.060717
v 0.054868 1.732547 0.014478
v -0.389479 -0.095056 0.375880
v 0.548727 -0.095056 0.375880
v -0.389479 1.357628 0.375880
v 0.548727 1.357628 0.375880
v 0.079624 -0.095056 0.844982
v 0.079624 -0.095056 -0.093223
v 0.079624 1.357628 0.844982
v 0.079624 1.357628 -0.093223
v 0.006192 -0.095056 -0.307452
v 0.915006 -0.095056 0.185499
v 0.006192 1.505794 -0.307452
v 0.915006 1.505794 0.185499
v 0.214124 -0.095056 0.393430
v 0.707075 -0.095056 -0.515384
v 0.214124 1.505793 0.393430
v 0.707075 1.505793 -0.515384
v 0.205335 -0.095056 0.151699
v 0.896967 -0.095056 0.785635
v 0.205335 1.064223 0.151699
v 0.896967 1.064223 0.785635
v 0.234183 -0.095056 0.814483
v 0.868119 -0.095056 0.122851
v 0.234183 1.064223 0.814483
v 0.868119 1.064223 0.122851
v -0.351424 -0.095056 0.095958
v 0.240962 -0.095056 -1.006383
v -0.351424 1.842612 0.095958
v 0.240962 1.842612 -1.006383
v 0.495939 -0.095056 -0.159020
v -0.606401 -0.095056 -0.751405
v 0.495940 1.842612 -0.159020
v -0.606401 1.842612 -0.751405
v -0.091033 -0.095056 -0.692059
v 0.842885 -0.095056 -0.781642
v -0.091033 0.486119 -0.692059
v 0.842885 0.486119 -0.781642
v 0.420718 -0.095056 -0.269891
v 0.331134 -0.095056 -1.203810
v 0.420718 0.486118 -0.269891
v 0.331134 0.486118 -1.203810
v -0.781812 -0.095056 0.591288
v 0.364796 -0.095056 0.821170
v -0.781812 0.486119 0.591288
v 0.364796 0.486119 0.821170
v -0.323449 -0.095056 1.279532
v -0.093567 -0.095056 0.132925
v -0.323449 0.486118 1.279532
v -0.093567 0.486118 0.132925
vn -0.9992 -0.0000 0.0392
vn 0.0392 -0.0000 0.9992
vn -0.0000 -0.0000 1.0000
vn 1.0000 -0.0000 -0.0000
vn -0.4768 -0.0000 0.8790
vn 0.8790 -0.0000 0.4768
vn -0.6757 -0.0000 0.7372
vn 0.7372 -0.0000 0.6757
vn 0.8809 -0.0000 0.4734
vn 0.4734 -0.0000 -0.8809
vn 0.0955 -0.0000 0.9954
vn 0.9954 -0.0000 -0.0955
vn -0.1966 -0.0000 0.9805
vn 0.9805 -0.0000 0.1966
vt 0.000100 0.000100
vt 0.999900 0.000100
vt 0.999900 0.999900
vt 0.000100 0.999900
s 0
f 1/1/1 2/2/1 4/3/1 3/4/1
f 5/1/2 6/2/2 8/3/2 7/4/2
f 9/1/3 10/2/3 12/3/3 11/4/3
f 13/1/4 14/2/4 16/3/4 15/4/4
f 17/1/5 18/2/5 20/3/5 19/4/5
f 21/1/6 22/2/6 24/3/6 23/4/6
f 25/1/7 26/2/7 28/3/7 27/4/7
f 29/1/8 30/2/8 32/3/8 31/4/8
f 33/1/9 34/2/9 36/3/9 35/4/9
f 37/1/10 38/2/10 40/3/10 39/4/10
f 41/1/11 42/2/11 44/3/11 43/4/11
f 45/1/12 46/2/12 48/3/12 47/4/12
f 49/1/13 50/2/13 52/3/13 51/4/13
f 53/1/14 54/2/14 56/3/14 55/4/14
